<svg xmlns="http://www.w3.org/2000/svg" viewBox="0 0 512 512">
  <defs>
    <filter id="shadow" x="-50%" y="-50%" width="200%" height="200%">
      <feDropShadow dx="0" dy="16" stdDeviation="16" flood-color="hsl(270, 50%, 40%)" flood-opacity="0.3"/>
    </filter>
  </defs>

  <rect x="32" y="32" width="448" height="448" rx="80" 
        fill="hsl(270, 40%, 99%)" 
        stroke="hsl(270, 40%, 80%)" 
        stroke-width="24"
        filter="url(#shadow)"/>
  
  <!-- "R" Path 
       - Scale 1 (Requested)
       - Mathematically Centered:
         Glyph BBox: (7.6, -288) to (209.2, 3.6)
         Glyph Center: (108.4, -142.2)
         Target Center: (256, 256)
         Translation: (256 - 108.4, 256 + 142.2) = (147.6, 398.2) -> Rounded to (148, 398)
  -->
  <path transform="translate(148, 398) scale(1)"
        fill="hsl(270, 50%, 20%)"
        d="M180 3.60L180 3.60Q145.20 3.60 135.60-42L135.60-42L126.40-86.40Q122-108 116.60-119.20Q111.20-130.40 101.80-134.40Q92.40-138.40 76-138.40L76-138.40Q70.40-138.40 67.20-135.40Q64-132.40 64-128L64-128L64-28Q64-19.60 67.20-16.60Q70.40-13.60 81.60-11.60L81.60-11.60L96.40-9.20Q100.80-8.40 100.80-4.80L100.80-4.80Q100.80 0 94.80 0L94.80 0L13.60 0Q7.60 0 7.60-4.40L7.60-4.40Q7.60-8 12.80-9.20L12.80-9.20L22-10.80Q30.40-12.40 33-15.20Q35.60-18 35.60-26.40L35.60-26.40L35.60-261.60Q35.60-270 33-272.80Q30.40-275.60 22-277.20L22-277.20L12.80-278.80Q7.60-280 7.60-283.60L7.60-283.60Q7.60-288 13.60-288L13.60-288L94.80-288Q118.40-288 136.80-278.80Q155.20-269.60 165.60-253.40Q176-237.20 176-216L176-216Q176-190.80 160.80-170.60Q145.60-150.40 122.40-142L122.40-142Q119.60-141.20 119.40-139.40Q119.20-137.60 122-136.40L122-136.40Q134.80-130.40 142.20-119.60Q149.60-108.80 153.60-90.80L153.60-90.80L162.40-50Q166.80-29.20 172.80-20.40Q178.80-11.60 188-11.60L188-11.60Q191.20-11.60 193.80-12.60Q196.40-13.60 200.40-16.40L200.40-16.40Q203.60-18.40 206.40-17.40Q209.20-16.40 209.20-13.20L209.20-13.20Q209.20-6.40 200.40-1.40Q191.60 3.60 180 3.60ZM90.80-148.40L90.80-148.40Q118-148.40 132-166.60Q146-184.80 146-215.20L146-215.20Q146-244.80 129.80-261.40Q113.60-278 85.20-278L85.20-278Q64-278 64-262L64-262L64-170.40Q64-148.40 90.80-148.40Z"/>
</svg>
